{
  "accessors": [
    {
      "bufferView": 3,
      "componentType": 5126,
      "count": 3383,
      "max": [
        2.2439301013946533,
        3.685822010040283,
        1.0999690294265747
      ],
      "min": [
        -2.2439301013946533,
        0.0007363000186160207,
        -0.8889194130897522
      ],
      "type": "VEC3"
    },
    {
      "bufferView": 3,
      "byteOffset": 40596,
      "componentType": 5126,
      "count": 3383,
      "max": [
        1.0,
        1.0,
        1.0
      ],
      "min": [
        -1.0,
        -1.0,
        -1.0
      ],
      "type": "VEC3"
    },
    {
      "bufferView": 2,
      "componentType": 5126,
      "count": 3383,
      "max": [
        0.9970999956130981,
        0.9891999959945679
      ],
      "min": [
        0.008999999612569809,
        0.006200000178068876
      ],
      "type": "VEC2"
    },
    {
      "bufferView": 1,
      "componentType": 5125,
      "count": 13902,
      "type": "SCALAR"
    },
    {
      "bufferView": 5,
      "componentType": 5126,
      "count": 58,
      "max": [
        1.0,
        0.9999876618385315,
        0.1467304825782776,
        0.0,
        0.9874869585037231,
        1.0,
        0.9986636638641357,
        0.0,
        0.9995895028114319,
        0.9986166954040527,
        1.0,
        0.0,
        1.4649114608764648,
        0.8750883936882019,
        1.793371319770813,
        1.0
      ],
      "min": [
        -0.9999947547912598,
        -0.999992847442627,
        -0.4127829968929291,
        0.0,
        -0.9872475266456604,
        -0.9999915361404419,
        -0.9996419548988342,
        0.0,
        -0.9996920228004456,
        -0.05356341227889061,
        -0.17485302686691284,
        0.0,
        -1.4610947370529175,
        -2.5694773197174072,
        -0.14230714738368988,
        1.0
      ],
      "type": "MAT4"
    },
    {
      "bufferView": 0,
      "componentType": 5123,
      "count": 3383,
      "type": "VEC4"
    },
    {
      "bufferView": 4,
      "componentType": 5126,
      "count": 3383,
      "max": [
        1.0,
        0.4979798495769501,
        0.3176775574684143,
        0.16220051050186157
      ],
      "min": [
        0.32668405771255493,
        0.0,
        0.0,
        0.0
      ],
      "type": "VEC4"
    },
    {
      "bufferView": 6,
      "componentType": 5126,
      "count": 139,
      "max": [
        4.733333110809326
      ],
      "min": [
        0.0
      ],
      "type": "SCALAR"
    },
    {
      "bufferView": 7,
      "componentType": 5126,
      "count": 139,
      "max": [
        5.551115123125783e-17,
        0.4722694158554077,
        0.02460804209113121
      ],
      "min": [
        -5.551115123125783e-17,
        0.4722694158554077,
        0.02460804209113121
      ],
      "type": "VEC3"
    },
    {
      "bufferView": 6,
      "byteOffset": 556,
      "componentType": 5126,
      "count": 143,
      "max": [
        4.733333110809326
      ],
      "min": [
        0.0
      ],
      "type": "SCALAR"
    },
    {
      "bufferView": 8,
      "componentType": 5126,
      "count": 143,
      "max": [
        -0.030627038329839706,
        0.12935428321361542,
        0.09691335260868073,
        0.9984731674194336
      ],
      "min": [
        -0.16999921202659607,
        -0.2644304633140564,
        -0.1048668622970581,
        0.9554486274719238
      ],
      "type": "VEC4"
    },
    {
      "bufferView": 6,
      "byteOffset": 1128,
      "componentType": 5126,
      "count": 135,
      "max": [
        4.733333110809326
      ],
      "min": [
        0.0
      ],
      "type": "SCALAR"
    },
    {
      "bufferView": 7,
      "byteOffset": 1668,
      "componentType": 5126,
      "count": 135,
      "max": [
        5.551115123125783e-17,
        0.14335036277770996,
        7.416861347309123e-09
      ],
      "min": [
        -5.551115123125783e-17,
        0.14335036277770996,
        7.416860903219913e-09
      ],
      "type": "VEC3"
    },
    {
      "bufferView": 6,
      "byteOffset": 1668,
      "componentType": 5126,
      "count": 143,
      "max": [
        4.733333110809326
      ],
      "min": [
        0.0
      ],
      "type": "SCALAR"
    },
    {
      "bufferView": 8,
      "byteOffset": 2288,
      "componentType": 5126,
      "count": 143,
      "max": [
        -0.0858849361538887,
        0.02732323296368122,
        0.07299011945724487,
        0.9953903555870056
      ],
      "min": [
        -0.16345420479774475,
        -0.05652235448360443,
        -0.07085544615983963,
        0.9839711785316467
      ],
      "type": "VEC4"
    },
    {
      "bufferView": 6,
      "byteOffset": 2240,
      "componentType": 5126,
      "count": 1,
      "max": [
        0.0
      ],
      "min": [
        0.0
      ],
      "type": "SCALAR"
    },
    {
      "bufferView": 8,
      "byteOffset": 4576,
      "componentType": 5126,
      "count": 1,
      "max": [
        -0.02092924155294895,
        -0.004520580172538757,
        0.1964969038963318,
        0.9802706241607666
      ],
      "min": [
        -0.02092924155294895,
        -0.004520580172538757,
        0.1964969038963318,
        0.9802706241607666
      ],
      "type": "VEC4"
    },
    {
      "bufferView": 6,
      "byteOffset": 2244,
      "componentType": 5126,
      "count": 1,
      "max": [
        0.0
      ],
      "min": [
        0.0
      ],
      "type": "SCALAR"
    },
    {
      "bufferView": 8,
      "byteOffset": 4592,
      "componentType": 5126,
      "count": 1,
      "max": [
        0.018113618716597557,
        -0.0026605718303471804,
        -0.041413262486457825,
        0.9989743828773499
      ],
      "min": [
        0.018113618716597557,
        -0.0026605718303471804,
        -0.041413262486457825,
        0.9989743828773499
      ],
      "type": "VEC4"
    },
    {
      "bufferView": 6,
      "byteOffset": 2248,
      "componentType": 5126,
      "count": 1,
      "max": [
        0.0
      ],
      "min": [
        0.0
      ],
      "type": "SCALAR"
    },
    {
      "bufferView": 8,
      "byteOffset": 4608,
      "componentType": 5126,
      "count": 1,
      "max": [
        0.15582174062728882,
        0.1081312820315361,
        0.1648290455341339,
        0.9679145812988281
      ],
      "min": [
        0.15582174062728882,
        0.1081312820315361,
        0.1648290455341339,
        0.9679145812988281
      ],
      "type": "VEC4"
    },
    {
      "bufferView": 6,
      "byteOffset": 2252,
      "componentType": 5126,
      "count": 1,
      "max": [
        0.0
      ],
      "min": [
        0.0
      ],
      "type": "SCALAR"
    },
    {
      "bufferView": 8,
      "byteOffset": 4624,
      "componentType": 5126,
      "count": 1,
      "max": [
        2.8415658448466274e-07,
        4.481098585529253e-05,
        0.0008818587521091104,
        0.9999995827674866
      ],
      "min": [
        2.8415658448466274e-07,
        4.481098585529253e-05,
        0.0008818587521091104,
        0.9999995827674866
      ],
      "type": "VEC4"
    },
    {
      "bufferView": 6,
      "byteOffset": 2256,
      "componentType": 5126,
      "count": 1,
      "max": [
        0.0
      ],
      "min": [
        0.0
      ],
      "type": "SCALAR"
    },
    {
      "bufferView": 8,
      "byteOffset": 4640,
      "componentType": 5126,
      "count": 1,
      "max": [
        -4.038913345993933e-07,
        -4.7379689931403846e-06,
        0.0006157632451504469,
        0.9999998211860657
      ],
      "min": [
        -4.038913345993933e-07,
        -4.7379689931403846e-06,
        0.0006157632451504469,
        0.9999998211860657
      ],
      "type": "VEC4"
    },
    {
      "bufferView": 6,
      "byteOffset": 2260,
      "componentType": 5126,
      "count": 1,
      "max": [
        0.0
      ],
      "min": [
        0.0
      ],
      "type": "SCALAR"
    },
    {
      "bufferView": 8,
      "byteOffset": 4656,
      "componentType": 5126,
      "count": 1,
      "max": [
        0.005418653599917889,
        0.0010629406897351146,
        -0.006592052523046732,
        0.9999630451202393
      ],
      "min": [
        0.005418653599917889,
        0.0010629406897351146,
        -0.006592052523046732,
        0.9999630451202393
      ],
      "type": "VEC4"
    },
    {
      "bufferView": 6,
      "byteOffset": 2264,
      "componentType": 5126,
      "count": 1,
      "max": [
        0.0
      ],
      "min": [
        0.0
      ],
      "type": "SCALAR"
    },
    {
      "bufferView": 8,
      "byteOffset": 4672,
      "componentType": 5126,
      "count": 1,
      "max": [
        -2.5646326662354113e-07,
        1.028572387440363e-05,
        0.000883351662196219,
        0.9999995827674866
      ],
      "min": [
        -2.5646326662354113e-07,
        1.028572387440363e-05,
        0.000883351662196219,
        0.9999995827674866
      ],
      "type": "VEC4"
    },
    {
      "bufferView": 6,
      "byteOffset": 2268,
      "componentType": 5126,
      "count": 1,
      "max": [
        0.0
      ],
      "min": [
        0.0
      ],
      "type": "SCALAR"
    },
    {
      "bufferView": 8,
      "byteOffset": 4688,
      "componentType": 5126,
      "count": 1,
      "max": [
        0.00013982270320411772,
        -2.5393988835276105e-05,
        0.0005790345021523535,
        0.9999998211860657
      ],
      "min": [
        0.00013982270320411772,
        -2.5393988835276105e-05,
        0.0005790345021523535,
        0.9999998211860657
      ],
      "type": "VEC4"
    },
    {
      "bufferView": 6,
      "byteOffset": 2272,
      "componentType": 5126,
      "count": 1,
      "max": [
        0.0
      ],
      "min": [
        0.0
      ],
      "type": "SCALAR"
    },
    {
      "bufferView": 8,
      "byteOffset": 4704,
      "componentType": 5126,
      "count": 1,
      "max": [
        0.00527262082323432,
        -0.00010487501276656985,
        -0.00656143669039011,
        0.9999645948410034
      ],
      "min": [
        0.00527262082323432,
        -0.00010487501276656985,
        -0.00656143669039011,
        0.9999645948410034
      ],
      "type": "VEC4"
    },
    {
      "bufferView": 6,
      "byteOffset": 2276,
      "componentType": 5126,
      "count": 1,
      "max": [
        0.0
      ],
      "min": [
        0.0
      ],
      "type": "SCALAR"
    },
    {
      "bufferView": 8,
      "byteOffset": 4720,
      "componentType": 5126,
      "count": 1,
      "max": [
        -5.125511748360623e-08,
        8.637675637146458e-05,
        0.0010438994504511356,
        0.999999463558197
      ],
      "min": [
        -5.125511748360623e-08,
        8.637675637146458e-05,
        0.0010438994504511356,
        0.999999463558197
      ],
      "type": "VEC4"
    },
    {
      "bufferView": 6,
      "byteOffset": 2280,
      "componentType": 5126,
      "count": 1,
      "max": [
        0.0
      ],
      "min": [
        0.0
      ],
      "type": "SCALAR"
    },
    {
      "bufferView": 8,
      "byteOffset": 4736,
      "componentType": 5126,
      "count": 1,
      "max": [
        -2.2574749891646206e-07,
        -2.9981361876707524e-05,
        0.0006858824635855854,
        0.9999997615814209
      ],
      "min": [
        -2.2574749891646206e-07,
        -2.9981361876707524e-05,
        0.0006858824635855854,
        0.9999997615814209
      ],
      "type": "VEC4"
    },
    {
      "bufferView": 6,
      "byteOffset": 2284,
      "componentType": 5126,
      "count": 1,
      "max": [
        0.0
      ],
      "min": [
        0.0
      ],
      "type": "SCALAR"
    },
    {
      "bufferView": 8,
      "byteOffset": 4752,
      "componentType": 5126,
      "count": 1,
      "max": [
        0.005409977864474058,
        -0.0003951260296162218,
        -0.006669932045042515,
        0.9999630451202393
      ],
      "min": [
        0.005409977864474058,
        -0.0003951260296162218,
        -0.006669932045042515,
        0.9999630451202393
      ],
      "type": "VEC4"
    },
    {
      "bufferView": 6,
      "byteOffset": 2288,
      "componentType": 5126,
      "count": 143,
      "max": [
        4.733333110809326
      ],
      "min": [
        0.0
      ],
      "type": "SCALAR"
    },
    {
      "bufferView": 7,
      "byteOffset": 3288,
      "componentType": 5126,
      "count": 143,
      "max": [
        -1.3857803793371204e-12,
        0.43953099846839905,
        1.6445400596865056e-11
      ],
      "min": [
        -1.3864465131518955e-12,
        0.43953099846839905,
        1.6444956507655206e-11
      ],
      "type": "VEC3"
    },
    {
      "bufferView": 6,
      "byteOffset": 2860,
      "componentType": 5126,
      "count": 143,
      "max": [
        4.733333110809326
      ],
      "min": [
        0.0
      ],
      "type": "SCALAR"
    },
    {
      "bufferView": 8,
      "byteOffset": 4768,
      "componentType": 5126,
      "count": 143,
      "max": [
        0.13221603631973267,
        0.844195544719696,
        0.2599198818206787,
        0.7821104526519775
      ],
      "min": [
        -0.3235549032688141,
        0.5910553336143494,
        -0.13012294471263885,
        0.5141699910163879
      ],
      "type": "VEC4"
    },
    {
      "bufferView": 6,
      "byteOffset": 3432,
      "componentType": 5126,
      "count": 142,
      "max": [
        4.733333110809326
      ],
      "min": [
        0.0
      ],
      "type": "SCALAR"
    },
    {
      "bufferView": 7,
      "byteOffset": 5004,
      "componentType": 5126,
      "count": 142,
      "max": [
        -3.2605562694243417e-10,
        0.3869416415691376,
        -2.3024915307701121e-10
      ],
      "min": [
        -3.2605629307624895e-10,
        0.3869416415691376,
        -2.3024970818852353e-10
      ],
      "type": "VEC3"
    },
    {
      "bufferView": 6,
      "byteOffset": 4000,
      "componentType": 5126,
      "count": 143,
      "max": [
        4.733333110809326
      ],
      "min": [
        0.0
      ],
      "type": "SCALAR"
    },
    {
      "bufferView": 8,
      "byteOffset": 7056,
      "componentType": 5126,
      "count": 143,
      "max": [
        0.9134935736656189,
        9.099358430830762e-05,
        0.14721034467220306,
        1.0
      ],
      "min": [
        -1.0280827922315439e-07,
        3.449075302341953e-05,
        -5.7950050091903904e-08,
        0.3792870044708252
      ],
      "type": "VEC4"
    },
    {
      "bufferView": 6,
      "byteOffset": 4572,
      "componentType": 5126,
      "count": 143,
      "max": [
        4.733333110809326
      ],
      "min": [
        0.0
      ],
      "type": "SCALAR"
    },
    {
      "bufferView": 7,
      "byteOffset": 6708,
      "componentType": 5126,
      "count": 143,
      "max": [
        1.0029406194433932e-09,
        0.6524315476417542,
        1.7683776665222695e-10
      ],
      "min": [
        1.0029399533095784e-09,
        0.6524315476417542,
        1.7683737807416833e-10
      ],
      "type": "VEC3"
    },
    {
      "bufferView": 6,
      "byteOffset": 5144,
      "componentType": 5126,
      "count": 143,
      "max": [
        4.733333110809326
      ],
      "min": [
        0.0
      ],
      "type": "SCALAR"
    },
    {
      "bufferView": 8,
      "byteOffset": 9344,
      "componentType": 5126,
      "count": 143,
      "max": [
        0.3985353708267212,
        0.25307559967041016,
        -0.26137393712997437,
        0.9257336258888245
      ],
      "min": [
        -0.23766633868217468,
        -0.30160582065582275,
        -0.6874479651451111,
        0.6647869348526001
      ],
      "type": "VEC4"
    },
    {
      "bufferView": 6,
      "byteOffset": 5716,
      "componentType": 5126,
      "count": 143,
      "max": [
        4.733333110809326
      ],
      "min": [
        0.0
      ],
      "type": "SCALAR"
    },
    {
      "bufferView": 8,
      "byteOffset": 11632,
      "componentType": 5126,
      "count": 143,
      "max": [
        0.028670666739344597,
        0.0473058857023716,
        -0.560602605342865,
        0.8277853727340698
      ],
      "min": [
        -0.05619851499795914,
        -0.012656085193157196,
        -0.7708942890167236,
        0.6339669823646545
      ],
      "type": "VEC4"
    },
    {
      "bufferView": 6,
      "byteOffset": 6288,
      "componentType": 5126,
      "count": 1,
      "max": [
        0.0
      ],
      "min": [
        0.0
      ],
      "type": "SCALAR"
    },
    {
      "bufferView": 8,
      "byteOffset": 13920,
      "componentType": 5126,
      "count": 1,
      "max": [
        -0.02057640627026558,
        -0.008214919827878475,
        -0.14636392891407013,
        0.9889826774597168
      ],
      "min": [
        -0.02057640627026558,
        -0.008214919827878475,
        -0.14636392891407013,
        0.9889826774597168
      ],
      "type": "VEC4"
    },
    {
      "bufferView": 6,
      "byteOffset": 6292,
      "componentType": 5126,
      "count": 1,
      "max": [
        0.0
      ],
      "min": [
        0.0
      ],
      "type": "SCALAR"
    },
    {
      "bufferView": 8,
      "byteOffset": 13936,
      "componentType": 5126,
      "count": 1,
      "max": [
        0.020585980266332626,
        0.0008333190344274044,
        0.04447412118315697,
        0.9987980723381042
      ],
      "min": [
        0.020585980266332626,
        0.0008333190344274044,
        0.04447412118315697,
        0.9987980723381042
      ],
      "type": "VEC4"
    },
    {
      "bufferView": 6,
      "byteOffset": 6296,
      "componentType": 5126,
      "count": 143,
      "max": [
        4.733333110809326
      ],
      "min": [
        0.0
      ],
      "type": "SCALAR"
    },
    {
      "bufferView": 8,
      "byteOffset": 13952,
      "componentType": 5126,
      "count": 143,
      "max": [
        0.15425829589366913,
        -0.09563251584768295,
        -0.17584764957427979,
        0.969617486000061
      ],
      "min": [
        0.13725759088993073,
        -0.09947899729013443,
        -0.2068890929222107,
        0.9622197151184082
      ],
      "type": "VEC4"
    },
    {
      "bufferView": 6,
      "byteOffset": 6868,
      "componentType": 5126,
      "count": 1,
      "max": [
        0.0
      ],
      "min": [
        0.0
      ],
      "type": "SCALAR"
    },
    {
      "bufferView": 8,
      "byteOffset": 16240,
      "componentType": 5126,
      "count": 1,
      "max": [
        2.970322157125338e-07,
        3.5380562621867284e-05,
        0.0009559751488268375,
        0.9999995231628418
      ],
      "min": [
        2.970322157125338e-07,
        3.5380562621867284e-05,
        0.0009559751488268375,
        0.9999995231628418
      ],
      "type": "VEC4"
    },
    {
      "bufferView": 6,
      "byteOffset": 6872,
      "componentType": 5126,
      "count": 1,
      "max": [
        0.0
      ],
      "min": [
        0.0
      ],
      "type": "SCALAR"
    },
    {
      "bufferView": 8,
      "byteOffset": 16256,
      "componentType": 5126,
      "count": 1,
      "max": [
        9.091586150589137e-08,
        -4.473776061786339e-05,
        0.001176468562334776,
        0.9999992847442627
      ],
      "min": [
        9.091586150589137e-08,
        -4.473776061786339e-05,
        0.001176468562334776,
        0.9999992847442627
      ],
      "type": "VEC4"
    },
    {
      "bufferView": 6,
      "byteOffset": 6876,
      "componentType": 5126,
      "count": 143,
      "max": [
        4.733333110809326
      ],
      "min": [
        0.0
      ],
      "type": "SCALAR"
    },
    {
      "bufferView": 8,
      "byteOffset": 16272,
      "componentType": 5126,
      "count": 143,
      "max": [
        -0.0031938019674271345,
        0.0005550695932470262,
        1.4248539628169965e-05,
        0.9999947547912598
      ],
      "min": [
        -0.019877376034855843,
        0.0005084129516035318,
        -0.0021838839165866375,
        0.999799907207489
      ],
      "type": "VEC4"
    },
    {
      "bufferView": 6,
      "byteOffset": 7448,
      "componentType": 5126,
      "count": 1,
      "max": [
        0.0
      ],
      "min": [
        0.0
      ],
      "type": "SCALAR"
    },
    {
      "bufferView": 8,
      "byteOffset": 18560,
      "componentType": 5126,
      "count": 1,
      "max": [
        -6.933159397704003e-07,
        0.0004774192057084292,
        -0.005512593779712915,
        0.9999846816062927
      ],
      "min": [
        -6.933159397704003e-07,
        0.0004774192057084292,
        -0.005512593779712915,
        0.9999846816062927
      ],
      "type": "VEC4"
    },
    {
      "bufferView": 6,
      "byteOffset": 7452,
      "componentType": 5126,
      "count": 1,
      "max": [
        0.0
      ],
      "min": [
        0.0
      ],
      "type": "SCALAR"
    },
    {
      "bufferView": 8,
      "byteOffset": 18576,
      "componentType": 5126,
      "count": 1,
      "max": [
        -2.405922714387998e-07,
        -2.8473265047068708e-05,
        0.0005820136866532266,
        0.9999998211860657
      ],
      "min": [
        -2.405922714387998e-07,
        -2.8473265047068708e-05,
        0.0005820136866532266,
        0.9999998211860657
      ],
      "type": "VEC4"
    },
    {
      "bufferView": 6,
      "byteOffset": 7456,
      "componentType": 5126,
      "count": 143,
      "max": [
        4.733333110809326
      ],
      "min": [
        0.0
      ],
      "type": "SCALAR"
    },
    {
      "bufferView": 8,
      "byteOffset": 18592,
      "componentType": 5126,
      "count": 143,
      "max": [
        -0.003192366100847721,
        -0.001476096105761826,
        0.0023611956275999546,
        0.9999909996986389
      ],
      "min": [
        -0.019880449399352074,
        -0.0014832833549007773,
        0.00019670229812618345,
        0.9998012185096741
      ],
      "type": "VEC4"
    },
    {
      "bufferView": 6,
      "byteOffset": 8028,
      "componentType": 5126,
      "count": 1,
      "max": [
        0.0
      ],
      "min": [
        0.0
      ],
      "type": "SCALAR"
    },
    {
      "bufferView": 8,
      "byteOffset": 20880,
      "componentType": 5126,
      "count": 1,
      "max": [
        1.8735474327513657e-07,
        1.9081953272661203e-17,
        -2.7755578924351364e-17,
        1.0
      ],
      "min": [
        1.8735474327513657e-07,
        1.9081953272661203e-17,
        -2.7755578924351364e-17,
        1.0
      ],
      "type": "VEC4"
    },
    {
      "bufferView": 6,
      "byteOffset": 8032,
      "componentType": 5126,
      "count": 1,
      "max": [
        0.0
      ],
      "min": [
        0.0
      ],
      "type": "SCALAR"
    },
    {
      "bufferView": 8,
      "byteOffset": 20896,
      "componentType": 5126,
      "count": 1,
      "max": [
        -2.5125785896307207e-07,
        2.6099723271499897e-08,
        6.063226010155631e-08,
        1.0
      ],
      "min": [
        -2.5125785896307207e-07,
        2.6099723271499897e-08,
        6.063226010155631e-08,
        1.0
      ],
      "type": "VEC4"
    },
    {
      "bufferView": 6,
      "byteOffset": 8036,
      "componentType": 5126,
      "count": 143,
      "max": [
        4.733333110809326
      ],
      "min": [
        0.0
      ],
      "type": "SCALAR"
    },
    {
      "bufferView": 8,
      "byteOffset": 20912,
      "componentType": 5126,
      "count": 143,
      "max": [
        -0.003191558877006173,
        -0.0009587164386175573,
        0.0011956756934523582,
        0.9999937415122986
      ],
      "min": [
        -0.019878510385751724,
        -0.0009854089003056288,
        -0.0009773356141522527,
        0.9998014569282532
      ],
      "type": "VEC4"
    },
    {
      "bufferView": 6,
      "byteOffset": 8608,
      "componentType": 5126,
      "count": 143,
      "max": [
        4.733333110809326
      ],
      "min": [
        0.0
      ],
      "type": "SCALAR"
    },
    {
      "bufferView": 7,
      "byteOffset": 8424,
      "componentType": 5126,
      "count": 143,
      "max": [
        7.476463892430729e-12,
        0.4395287334918976,
        4.792455321478428e-11
      ],
      "min": [
        7.475575714011029e-12,
        0.4395287334918976,
        4.7923776058667045e-11
      ],
      "type": "VEC3"
    },
    {
      "bufferView": 6,
      "byteOffset": 9180,
      "componentType": 5126,
      "count": 143,
      "max": [
        4.733333110809326
      ],
      "min": [
        0.0
      ],
      "type": "SCALAR"
    },
    {
      "bufferView": 8,
      "byteOffset": 23200,
      "componentType": 5126,
      "count": 143,
      "max": [
        0.17185695469379425,
        0.9729049801826477,
        0.18762581050395966,
        0.9475960731506348
      ],
      "min": [
        -0.1889132559299469,
        -0.8501770496368408,
        -0.17163771390914917,
        -0.49917513132095337
      ],
      "type": "VEC4"
    },
    {
      "bufferView": 6,
      "byteOffset": 9752,
      "componentType": 5126,
      "count": 143,
      "max": [
        4.733333110809326
      ],
      "min": [
        0.0
      ],
      "type": "SCALAR"
    },
    {
      "bufferView": 7,
      "byteOffset": 10140,
      "componentType": 5126,
      "count": 143,
      "max": [
        1.037372410195303e-10,
        0.38692525029182434,
        2.9400482048913545e-11
      ],
      "min": [
        1.037363528411106e-10,
        0.38692525029182434,
        2.939981591509877e-11
      ],
      "type": "VEC3"
    },
    {
      "bufferView": 6,
      "byteOffset": 10324,
      "componentType": 5126,
      "count": 143,
      "max": [
        4.733333110809326
      ],
      "min": [
        0.0
      ],
      "type": "SCALAR"
    },
    {
      "bufferView": 8,
      "byteOffset": 25488,
      "componentType": 5126,
      "count": 143,
      "max": [
        0.8764694929122925,
        0.0001799196470528841,
        -0.01592080295085907,
        0.9949150681495667
      ],
      "min": [
        0.09945110231637955,
        8.362108201254159e-05,
        -0.14031387865543365,
        0.4605574905872345
      ],
      "type": "VEC4"
    },
    {
      "bufferView": 6,
      "byteOffset": 10896,
      "componentType": 5126,
      "count": 143,
      "max": [
        4.733333110809326
      ],
      "min": [
        0.0
      ],
      "type": "SCALAR"
    },
    {
      "bufferView": 7,
      "byteOffset": 11856,
      "componentType": 5126,
      "count": 143,
      "max": [
        1.105387781308309e-09,
        0.6524316072463989,
        -3.165240292091198e-10
      ],
      "min": [
        1.1053868931298894e-09,
        0.6524316072463989,
        -3.1652447329832967e-10
      ],
      "type": "VEC3"
    },
    {
      "bufferView": 6,
      "byteOffset": 11468,
      "componentType": 5126,
      "count": 143,
      "max": [
        4.733333110809326
      ],
      "min": [
        0.0
      ],
      "type": "SCALAR"
    },
    {
      "bufferView": 8,
      "byteOffset": 27776,
      "componentType": 5126,
      "count": 143,
      "max": [
        0.36393189430236816,
        0.2881454825401306,
        0.5695699453353882,
        0.9987915754318237
      ],
      "min": [
        -0.15791457891464233,
        -0.24493205547332764,
        -0.1188029944896698,
        0.7661522030830383
      ],
      "type": "VEC4"
    },
    {
      "bufferView": 6,
      "byteOffset": 12040,
      "componentType": 5126,
      "count": 143,
      "max": [
        4.733333110809326
      ],
      "min": [
        0.0
      ],
      "type": "SCALAR"
    },
    {
      "bufferView": 8,
      "byteOffset": 30064,
      "componentType": 5126,
      "count": 143,
      "max": [
        -0.004287427291274071,
        -0.00863041914999485,
        0.7715849280357361,
        0.8069357872009277
      ],
      "min": [
        -0.08686582744121552,
        -0.07018294185400009,
        0.5900581479072571,
        0.6324441432952881
      ],
      "type": "VEC4"
    },
    {
      "bufferView": 6,
      "byteOffset": 12612,
      "componentType": 5126,
      "count": 143,
      "max": [
        4.733333110809326
      ],
      "min": [
        0.0
      ],
      "type": "SCALAR"
    },
    {
      "bufferView": 7,
      "byteOffset": 13572,
      "componentType": 5126,
      "count": 143,
      "max": [
        5.551115123125783e-17,
        0.12742263078689575,
        4.770586148339362e-10
      ],
      "min": [
        -5.551115123125783e-17,
        0.12742263078689575,
        4.770582817670288e-10
      ],
      "type": "VEC3"
    },
    {
      "bufferView": 6,
      "byteOffset": 13184,
      "componentType": 5126,
      "count": 143,
      "max": [
        4.733333110809326
      ],
      "min": [
        0.0
      ],
      "type": "SCALAR"
    },
    {
      "bufferView": 8,
      "byteOffset": 32352,
      "componentType": 5126,
      "count": 143,
      "max": [
        0.015352736227214336,
        0.037037286907434464,
        0.06753534078598022,
        0.9999828338623047
      ],
      "min": [
        -0.03256578743457794,
        -0.03536073863506317,
        -0.056315090507268906,
        0.9973746538162231
      ],
      "type": "VEC4"
    },
    {
      "bufferView": 6,
      "byteOffset": 13756,
      "componentType": 5126,
      "count": 143,
      "max": [
        4.733333110809326
      ],
      "min": [
        0.0
      ],
      "type": "SCALAR"
    },
    {
      "bufferView": 7,
      "byteOffset": 15288,
      "componentType": 5126,
      "count": 143,
      "max": [
        4.163336342344337e-17,
        0.1114947646856308,
        3.0679703222347143e-10
      ],
      "min": [
        -5.551115123125783e-17,
        0.1114947646856308,
        3.0679669915656405e-10
      ],
      "type": "VEC3"
    },
    {
      "bufferView": 6,
      "byteOffset": 14328,
      "componentType": 5126,
      "count": 143,
      "max": [
        4.733333110809326
      ],
      "min": [
        0.0
      ],
      "type": "SCALAR"
    },
    {
      "bufferView": 8,
      "byteOffset": 34640,
      "componentType": 5126,
      "count": 143,
      "max": [
        0.014352920465171337,
        0.036932703107595444,
        0.06763243675231934,
        0.9999828338623047
      ],
      "min": [
        -0.03260612487792969,
        -0.035189952701330185,
        -0.05655612796545029,
        0.9973753094673157
      ],
      "type": "VEC4"
    },
    {
      "bufferView": 6,
      "byteOffset": 14900,
      "componentType": 5126,
      "count": 138,
      "max": [
        4.733333110809326
      ],
      "min": [
        0.0
      ],
      "type": "SCALAR"
    },
    {
      "bufferView": 7,
      "byteOffset": 17004,
      "componentType": 5126,
      "count": 138,
      "max": [
        5.551115123125783e-17,
        0.09434783458709717,
        0.015216514468193054
      ],
      "min": [
        -8.326672684688674e-17,
        0.09434783458709717,
        0.015216514468193054
      ],
      "type": "VEC3"
    },
    {
      "bufferView": 6,
      "byteOffset": 15452,
      "componentType": 5126,
      "count": 143,
      "max": [
        4.733333110809326
      ],
      "min": [
        0.0
      ],
      "type": "SCALAR"
    },
    {
      "bufferView": 8,
      "byteOffset": 36928,
      "componentType": 5126,
      "count": 143,
      "max": [
        0.0906609520316124,
        0.016743572428822517,
        0.0760611891746521,
        0.9979934692382813
      ],
      "min": [
        0.06315140426158905,
        -0.024855244904756546,
        -0.10707367956638336,
        0.9906710982322693
      ],
      "type": "VEC4"
    },
    {
      "bufferView": 6,
      "byteOffset": 16024,
      "componentType": 5126,
      "count": 143,
      "max": [
        4.733333110809326
      ],
      "min": [
        0.0
      ],
      "type": "SCALAR"
    },
    {
      "bufferView": 7,
      "byteOffset": 18660,
      "componentType": 5126,
      "count": 143,
      "max": [
        7.615541530725523e-11,
        0.3081423342227936,
        7.625101106079057e-10
      ],
      "min": [
        7.615508224034784e-11,
        0.3081423342227936,
        7.625098330521496e-10
      ],
      "type": "VEC3"
    },
    {
      "bufferView": 6,
      "byteOffset": 16596,
      "componentType": 5126,
      "count": 143,
      "max": [
        4.733333110809326
      ],
      "min": [
        0.0
      ],
      "type": "SCALAR"
    },
    {
      "bufferView": 8,
      "byteOffset": 39216,
      "componentType": 5126,
      "count": 143,
      "max": [
        0.5549510717391968,
        0.06533726304769516,
        0.008406209759414196,
        0.9647062420845032
      ],
      "min": [
        0.26332733035087585,
        -0.17848777770996094,
        -0.022457938641309738,
        0.8310124278068542
      ],
      "type": "VEC4"
    },
    {
      "bufferView": 6,
      "byteOffset": 17168,
      "componentType": 5126,
      "count": 143,
      "max": [
        4.733333110809326
      ],
      "min": [
        0.0
      ],
      "type": "SCALAR"
    },
    {
      "bufferView": 7,
      "byteOffset": 20376,
      "componentType": 5126,
      "count": 143,
      "max": [
        1.0421552509853882e-11,
        0.30838948488235474,
        3.5769276429675756e-11
      ],
      "min": [
        1.0421219442946494e-11,
        0.30838948488235474,
        3.57689988739196e-11
      ],
      "type": "VEC3"
    },
    {
      "bufferView": 6,
      "byteOffset": 17740,
      "componentType": 5126,
      "count": 143,
      "max": [
        4.733333110809326
      ],
      "min": [
        0.0
      ],
      "type": "SCALAR"
    },
    {
      "bufferView": 8,
      "byteOffset": 41504,
      "componentType": 5126,
      "count": 143,
      "max": [
        0.7821925282478333,
        0.03672822192311287,
        0.10753603279590607,
        0.9289774894714355
      ],
      "min": [
        0.3518226146697998,
        -0.15418612957000732,
        -0.1541776955127716,
        0.610980749130249
      ],
      "type": "VEC4"
    },
    {
      "bufferView": 6,
      "byteOffset": 18312,
      "componentType": 5126,
      "count": 143,
      "max": [
        4.733333110809326
      ],
      "min": [
        0.0
      ],
      "type": "SCALAR"
    },
    {
      "bufferView": 7,
      "byteOffset": 22092,
      "componentType": 5126,
      "count": 143,
      "max": [
        9.16203779510738e-11,
        0.39512571692466736,
        -1.5029533173560594e-11
      ],
      "min": [
        9.162004488416642e-11,
        0.39512571692466736,
        -1.5029977262770444e-11
      ],
      "type": "VEC3"
    },
    {
      "bufferView": 6,
      "byteOffset": 18884,
      "componentType": 5126,
      "count": 143,
      "max": [
        4.733333110809326
      ],
      "min": [
        0.0
      ],
      "type": "SCALAR"
    },
    {
      "bufferView": 8,
      "byteOffset": 43792,
      "componentType": 5126,
      "count": 143,
      "max": [
        0.9574626684188843,
        0.03821280598640442,
        0.12852677702903748,
        0.9991257786750793
      ],
      "min": [
        -0.8561611771583557,
        -0.16095378994941711,
        -0.07929389923810959,
        -0.4906759262084961
      ],
      "type": "VEC4"
    },
    {
      "bufferView": 6,
      "byteOffset": 19456,
      "componentType": 5126,
      "count": 94,
      "max": [
        4.733333110809326
      ],
      "min": [
        0.0
      ],
      "type": "SCALAR"
    },
    {
      "bufferView": 7,
      "byteOffset": 23808,
      "componentType": 5126,
      "count": 94,
      "max": [
        0.4851273000240326,
        -0.054319024085998535,
        0.06468501687049866
      ],
      "min": [
        0.4851273000240326,
        -0.054319024085998535,
        0.06468500941991806
      ],
      "type": "VEC3"
    },
    {
      "bufferView": 6,
      "byteOffset": 19832,
      "componentType": 5126,
      "count": 143,
      "max": [
        4.733333110809326
      ],
      "min": [
        0.0
      ],
      "type": "SCALAR"
    },
    {
      "bufferView": 8,
      "byteOffset": 46080,
      "componentType": 5126,
      "count": 143,
      "max": [
        0.13396088778972626,
        0.6937078237533569,
        0.9979674816131592,
        0.07196000963449478
      ],
      "min": [
        -0.006627686787396669,
        -0.36961430311203003,
        0.7180370092391968,
        -0.08201880007982254
      ],
      "type": "VEC4"
    },
    {
      "bufferView": 6,
      "byteOffset": 20404,
      "componentType": 5126,
      "count": 136,
      "max": [
        4.733333110809326
      ],
      "min": [
        0.0
      ],
      "type": "SCALAR"
    },
    {
      "bufferView": 7,
      "byteOffset": 24936,
      "componentType": 5126,
      "count": 136,
      "max": [
        -2.0219304008861627e-10,
        0.3035717308521271,
        2.8582451960801336e-09
      ],
      "min": [
        -2.0219337315552366e-10,
        0.3035717308521271,
        2.8582451960801336e-09
      ],
      "type": "VEC3"
    },
    {
      "bufferView": 6,
      "byteOffset": 20948,
      "componentType": 5126,
      "count": 143,
      "max": [
        4.733333110809326
      ],
      "min": [
        0.0
      ],
      "type": "SCALAR"
    },
    {
      "bufferView": 8,
      "byteOffset": 48368,
      "componentType": 5126,
      "count": 143,
      "max": [
        0.5237945318222046,
        0.1296142190694809,
        0.020632131025195122,
        0.9638040661811829
      ],
      "min": [
        0.26660704612731934,
        -0.058589641004800797,
        -0.008303007110953331,
        0.8518421053886414
      ],
      "type": "VEC4"
    },
    {
      "bufferView": 6,
      "byteOffset": 21520,
      "componentType": 5126,
      "count": 142,
      "max": [
        4.733333110809326
      ],
      "min": [
        0.0
      ],
      "type": "SCALAR"
    },
    {
      "bufferView": 7,
      "byteOffset": 26568,
      "componentType": 5126,
      "count": 142,
      "max": [
        -1.874089772258003e-11,
        0.30865082144737244,
        2.3059942844128045e-10
      ],
      "min": [
        -1.874134181178988e-11,
        0.30865082144737244,
        2.3059920639667553e-10
      ],
      "type": "VEC3"
    },
    {
      "bufferView": 6,
      "byteOffset": 22088,
      "componentType": 5126,
      "count": 143,
      "max": [
        4.733333110809326
      ],
      "min": [
        0.0
      ],
      "type": "SCALAR"
    },
    {
      "bufferView": 8,
      "byteOffset": 50656,
      "componentType": 5126,
      "count": 143,
      "max": [
        0.7871651649475098,
        0.11281700432300568,
        0.14807556569576263,
        0.9478989839553833
      ],
      "min": [
        0.27834194898605347,
        -0.030249550938606262,
        -0.05225015804171562,
        0.6119384765625
      ],
      "type": "VEC4"
    },
    {
      "bufferView": 6,
      "byteOffset": 22660,
      "componentType": 5126,
      "count": 141,
      "max": [
        4.733333110809326
      ],
      "min": [
        0.0
      ],
      "type": "SCALAR"
    },
    {
      "bufferView": 7,
      "byteOffset": 28272,
      "componentType": 5126,
      "count": 141,
      "max": [
        1.0625944568687373e-11,
        0.3951902985572815,
        1.383222425488384e-10
      ],
      "min": [
        1.0625611501779986e-11,
        0.3951902985572815,
        1.3832179845962855e-10
      ],
      "type": "VEC3"
    },
    {
      "bufferView": 6,
      "byteOffset": 23224,
      "componentType": 5126,
      "count": 143,
      "max": [
        4.733333110809326
      ],
      "min": [
        0.0
      ],
      "type": "SCALAR"
    },
    {
      "bufferView": 8,
      "byteOffset": 52944,
      "componentType": 5126,
      "count": 143,
      "max": [
        0.922003448009491,
        0.11683771759271622,
        0.13000145554542542,
        0.9994433522224426
      ],
      "min": [
        -0.8575578331947327,
        -0.11445777863264084,
        -0.17515519261360168,
        -0.4710506200790405
      ],
      "type": "VEC4"
    },
    {
      "bufferView": 6,
      "byteOffset": 23796,
      "componentType": 5126,
      "count": 99,
      "max": [
        4.733333110809326
      ],
      "min": [
        0.0
      ],
      "type": "SCALAR"
    },
    {
      "bufferView": 7,
      "byteOffset": 29964,
      "componentType": 5126,
      "count": 99,
      "max": [
        -0.4851273000240326,
        -0.054319024085998535,
        0.06724201142787933
      ],
      "min": [
        -0.4851273000240326,
        -0.054319024085998535,
        0.06724200397729874
      ],
      "type": "VEC3"
    },
    {
      "bufferView": 6,
      "byteOffset": 24192,
      "componentType": 5126,
      "count": 143,
      "max": [
        4.733333110809326
      ],
      "min": [
        0.0
      ],
      "type": "SCALAR"
    },
    {
      "bufferView": 8,
      "byteOffset": 55232,
      "componentType": 5126,
      "count": 143,
      "max": [
        0.08500340580940247,
        0.8225147724151611,
        0.997029185295105,
        0.14592911303043365
      ],
      "min": [
        -0.11162842810153961,
        -0.304440975189209,
        0.5605441331863403,
        -0.040360186249017715
      ],
      "type": "VEC4"
    },
    {
      "bufferView": 6,
      "byteOffset": 24764,
      "componentType": 5126,
      "count": 143,
      "max": [
        4.733333110809326
      ],
      "min": [
        0.0
      ],
      "type": "SCALAR"
    },
    {
      "bufferView": 7,
      "byteOffset": 31152,
      "componentType": 5126,
      "count": 143,
      "max": [
        0.247152179479599,
        1.0485721826553345,
        -0.02434558793902397
      ],
      "min": [
        -0.20182770490646362,
        0.7023532390594482,
        -0.28484079241752625
      ],
      "type": "VEC3"
    },
    {
      "bufferView": 6,
      "byteOffset": 25336,
      "componentType": 5126,
      "count": 143,
      "max": [
        4.733333110809326
      ],
      "min": [
        0.0
      ],
      "type": "SCALAR"
    },
    {
      "bufferView": 8,
      "byteOffset": 57520,
      "componentType": 5126,
      "count": 143,
      "max": [
        0.18344667553901672,
        0.3279450535774231,
        0.0955168604850769,
        0.9927452802658081
      ],
      "min": [
        0.0753849446773529,
        -0.27596667408943176,
        -0.05852764844894409,
        0.9398457407951355
      ],
      "type": "VEC4"
    }
  ],
  "animations": [
    {
      "channels": [
        {
          "sampler": 0,
          "target": {
            "node": 12,
            "path": "translation"
          }
        },
        {
          "sampler": 1,
          "target": {
            "node": 12,
            "path": "rotation"
          }
        },
        {
          "sampler": 2,
          "target": {
            "node": 11,
            "path": "translation"
          }
        },
        {
          "sampler": 3,
          "target": {
            "node": 11,
            "path": "rotation"
          }
        },
        {
          "sampler": 4,
          "target": {
            "node": 20,
            "path": "rotation"
          }
        },
        {
          "sampler": 5,
          "target": {
            "node": 19,
            "path": "rotation"
          }
        },
        {
          "sampler": 6,
          "target": {
            "node": 18,
            "path": "rotation"
          }
        },
        {
          "sampler": 7,
          "target": {
            "node": 24,
            "path": "rotation"
          }
        },
        {
          "sampler": 8,
          "target": {
            "node": 23,
            "path": "rotation"
          }
        },
        {
          "sampler": 9,
          "target": {
            "node": 22,
            "path": "rotation"
          }
        },
        {
          "sampler": 10,
          "target": {
            "node": 28,
            "path": "rotation"
          }
        },
        {
          "sampler": 11,
          "target": {
            "node": 27,
            "path": "rotation"
          }
        },
        {
          "sampler": 12,
          "target": {
            "node": 26,
            "path": "rotation"
          }
        },
        {
          "sampler": 13,
          "target": {
            "node": 32,
            "path": "rotation"
          }
        },
        {
          "sampler": 14,
          "target": {
            "node": 31,
            "path": "rotation"
          }
        },
        {
          "sampler": 15,
          "target": {
            "node": 30,
            "path": "rotation"
          }
        },
        {
          "sampler": 16,
          "target": {
            "node": 17,
            "path": "translation"
          }
        },
        {
          "sampler": 17,
          "target": {
            "node": 17,
            "path": "rotation"
          }
        },
        {
          "sampler": 18,
          "target": {
            "node": 16,
            "path": "translation"
          }
        },
        {
          "sampler": 19,
          "target": {
            "node": 16,
            "path": "rotation"
          }
        },
        {
          "sampler": 20,
          "target": {
            "node": 15,
            "path": "translation"
          }
        },
        {
          "sampler": 21,
          "target": {
            "node": 15,
            "path": "rotation"
          }
        },
        {
          "sampler": 22,
          "target": {
            "node": 14,
            "path": "rotation"
          }
        },
        {
          "sampler": 23,
          "target": {
            "node": 40,
            "path": "rotation"
          }
        },
        {
          "sampler": 24,
          "target": {
            "node": 39,
            "path": "rotation"
          }
        },
        {
          "sampler": 25,
          "target": {
            "node": 38,
            "path": "rotation"
          }
        },
        {
          "sampler": 26,
          "target": {
            "node": 44,
            "path": "rotation"
          }
        },
        {
          "sampler": 27,
          "target": {
            "node": 43,
            "path": "rotation"
          }
        },
        {
          "sampler": 28,
          "target": {
            "node": 42,
            "path": "rotation"
          }
        },
        {
          "sampler": 29,
          "target": {
            "node": 48,
            "path": "rotation"
          }
        },
        {
          "sampler": 30,
          "target": {
            "node": 47,
            "path": "rotation"
          }
        },
        {
          "sampler": 31,
          "target": {
            "node": 46,
            "path": "rotation"
          }
        },
        {
          "sampler": 32,
          "target": {
            "node": 52,
            "path": "rotation"
          }
        },
        {
          "sampler": 33,
          "target": {
            "node": 51,
            "path": "rotation"
          }
        },
        {
          "sampler": 34,
          "target": {
            "node": 50,
            "path": "rotation"
          }
        },
        {
          "sampler": 35,
          "target": {
            "node": 37,
            "path": "translation"
          }
        },
        {
          "sampler": 36,
          "target": {
            "node": 37,
            "path": "rotation"
          }
        },
        {
          "sampler": 37,
          "target": {
            "node": 36,
            "path": "translation"
          }
        },
        {
          "sampler": 38,
          "target": {
            "node": 36,
            "path": "rotation"
          }
        },
        {
          "sampler": 39,
          "target": {
            "node": 35,
            "path": "translation"
          }
        },
        {
          "sampler": 40,
          "target": {
            "node": 35,
            "path": "rotation"
          }
        },
        {
          "sampler": 41,
          "target": {
            "node": 34,
            "path": "rotation"
          }
        },
        {
          "sampler": 42,
          "target": {
            "node": 10,
            "path": "translation"
          }
        },
        {
          "sampler": 43,
          "target": {
            "node": 10,
            "path": "rotation"
          }
        },
        {
          "sampler": 44,
          "target": {
            "node": 9,
            "path": "translation"
          }
        },
        {
          "sampler": 45,
          "target": {
            "node": 9,
            "path": "rotation"
          }
        },
        {
          "sampler": 46,
          "target": {
            "node": 8,
            "path": "translation"
          }
        },
        {
          "sampler": 47,
          "target": {
            "node": 8,
            "path": "rotation"
          }
        },
        {
          "sampler": 48,
          "target": {
            "node": 57,
            "path": "translation"
          }
        },
        {
          "sampler": 49,
          "target": {
            "node": 57,
            "path": "rotation"
          }
        },
        {
          "sampler": 50,
          "target": {
            "node": 56,
            "path": "translation"
          }
        },
        {
          "sampler": 51,
          "target": {
            "node": 56,
            "path": "rotation"
          }
        },
        {
          "sampler": 52,
          "target": {
            "node": 55,
            "path": "translation"
          }
        },
        {
          "sampler": 53,
          "target": {
            "node": 55,
            "path": "rotation"
          }
        },
        {
          "sampler": 54,
          "target": {
            "node": 54,
            "path": "translation"
          }
        },
        {
          "sampler": 55,
          "target": {
            "node": 54,
            "path": "rotation"
          }
        },
        {
          "sampler": 56,
          "target": {
            "node": 62,
            "path": "translation"
          }
        },
        {
          "sampler": 57,
          "target": {
            "node": 62,
            "path": "rotation"
          }
        },
        {
          "sampler": 58,
          "target": {
            "node": 61,
            "path": "translation"
          }
        },
        {
          "sampler": 59,
          "target": {
            "node": 61,
            "path": "rotation"
          }
        },
        {
          "sampler": 60,
          "target": {
            "node": 60,
            "path": "translation"
          }
        },
        {
          "sampler": 61,
          "target": {
            "node": 60,
            "path": "rotation"
          }
        },
        {
          "sampler": 62,
          "target": {
            "node": 59,
            "path": "translation"
          }
        },
        {
          "sampler": 63,
          "target": {
            "node": 59,
            "path": "rotation"
          }
        },
        {
          "sampler": 64,
          "target": {
            "node": 7,
            "path": "translation"
          }
        },
        {
          "sampler": 65,
          "target": {
            "node": 7,
            "path": "rotation"
          }
        }
      ],
      "name": "mixamo.com",
      "samplers": [
        {
          "input": 7,
          "interpolation": "LINEAR",
          "output": 8
        },
        {
          "input": 9,
          "interpolation": "LINEAR",
          "output": 10
        },
        {
          "input": 11,
          "interpolation": "LINEAR",
          "output": 12
        },
        {
          "input": 13,
          "interpolation": "LINEAR",
          "output": 14
        },
        {
          "input": 15,
          "interpolation": "LINEAR",
          "output": 16
        },
        {
          "input": 17,
          "interpolation": "LINEAR",
          "output": 18
        },
        {
          "input": 19,
          "interpolation": "LINEAR",
          "output": 20
        },
        {
          "input": 21,
          "interpolation": "LINEAR",
          "output": 22
        },
        {
          "input": 23,
          "interpolation": "LINEAR",
          "output": 24
        },
        {
          "input": 25,
          "interpolation": "LINEAR",
          "output": 26
        },
        {
          "input": 27,
          "interpolation": "LINEAR",
          "output": 28
        },
        {
          "input": 29,
          "interpolation": "LINEAR",
          "output": 30
        },
        {
          "input": 31,
          "interpolation": "LINEAR",
          "output": 32
        },
        {
          "input": 33,
          "interpolation": "LINEAR",
          "output": 34
        },
        {
          "input": 35,
          "interpolation": "LINEAR",
          "output": 36
        },
        {
          "input": 37,
          "interpolation": "LINEAR",
          "output": 38
        },
        {
          "input": 39,
          "interpolation": "LINEAR",
          "output": 40
        },
        {
          "input": 41,
          "interpolation": "LINEAR",
          "output": 42
        },
        {
          "input": 43,
          "interpolation": "LINEAR",
          "output": 44
        },
        {
          "input": 45,
          "interpolation": "LINEAR",
          "output": 46
        },
        {
          "input": 47,
          "interpolation": "LINEAR",
          "output": 48
        },
        {
          "input": 49,
          "interpolation": "LINEAR",
          "output": 50
        },
        {
          "input": 51,
          "interpolation": "LINEAR",
          "output": 52
        },
        {
          "input": 53,
          "interpolation": "LINEAR",
          "output": 54
        },
        {
          "input": 55,
          "interpolation": "LINEAR",
          "output": 56
        },
        {
          "input": 57,
          "interpolation": "LINEAR",
          "output": 58
        },
        {
          "input": 59,
          "interpolation": "LINEAR",
          "output": 60
        },
        {
          "input": 61,
          "interpolation": "LINEAR",
          "output": 62
        },
        {
          "input": 63,
          "interpolation": "LINEAR",
          "output": 64
        },
        {
          "input": 65,
          "interpolation": "LINEAR",
          "output": 66
        },
        {
          "input": 67,
          "interpolation": "LINEAR",
          "output": 68
        },
        {
          "input": 69,
          "interpolation": "LINEAR",
          "output": 70
        },
        {
          "input": 71,
          "interpolation": "LINEAR",
          "output": 72
        },
        {
          "input": 73,
          "interpolation": "LINEAR",
          "output": 74
        },
        {
          "input": 75,
          "interpolation": "LINEAR",
          "output": 76
        },
        {
          "input": 77,
          "interpolation": "LINEAR",
          "output": 78
        },
        {
          "input": 79,
          "interpolation": "LINEAR",
          "output": 80
        },
        {
          "input": 81,
          "interpolation": "LINEAR",
          "output": 82
        },
        {
          "input": 83,
          "interpolation": "LINEAR",
          "output": 84
        },
        {
          "input": 85,
          "interpolation": "LINEAR",
          "output": 86
        },
        {
          "input": 87,
          "interpolation": "LINEAR",
          "output": 88
        },
        {
          "input": 89,
          "interpolation": "LINEAR",
          "output": 90
        },
        {
          "input": 91,
          "interpolation": "LINEAR",
          "output": 92
        },
        {
          "input": 93,
          "interpolation": "LINEAR",
          "output": 94
        },
        {
          "input": 95,
          "interpolation": "LINEAR",
          "output": 96
        },
        {
          "input": 97,
          "interpolation": "LINEAR",
          "output": 98
        },
        {
          "input": 99,
          "interpolation": "LINEAR",
          "output": 100
        },
        {
          "input": 101,
          "interpolation": "LINEAR",
          "output": 102
        },
        {
          "input": 103,
          "interpolation": "LINEAR",
          "output": 104
        },
        {
          "input": 105,
          "interpolation": "LINEAR",
          "output": 106
        },
        {
          "input": 107,
          "interpolation": "LINEAR",
          "output": 108
        },
        {
          "input": 109,
          "interpolation": "LINEAR",
          "output": 110
        },
        {
          "input": 111,
          "interpolation": "LINEAR",
          "output": 112
        },
        {
          "input": 113,
          "interpolation": "LINEAR",
          "output": 114
        },
        {
          "input": 115,
          "interpolation": "LINEAR",
          "output": 116
        },
        {
          "input": 117,
          "interpolation": "LINEAR",
          "output": 118
        },
        {
          "input": 119,
          "interpolation": "LINEAR",
          "output": 120
        },
        {
          "input": 121,
          "interpolation": "LINEAR",
          "output": 122
        },
        {
          "input": 123,
          "interpolation": "LINEAR",
          "output": 124
        },
        {
          "input": 125,
          "interpolation": "LINEAR",
          "output": 126
        },
        {
          "input": 127,
          "interpolation": "LINEAR",
          "output": 128
        },
        {
          "input": 129,
          "interpolation": "LINEAR",
          "output": 130
        },
        {
          "input": 131,
          "interpolation": "LINEAR",
          "output": 132
        },
        {
          "input": 133,
          "interpolation": "LINEAR",
          "output": 134
        },
        {
          "input": 135,
          "interpolation": "LINEAR",
          "output": 136
        },
        {
          "input": 137,
          "interpolation": "LINEAR",
          "output": 138
        }
      ]
    }
  ],
  "asset": {
    "extras": {
      "author": "AndruBanana (https://sketchfab.com/andrumart88)",
      "license": "CC-BY-4.0 (http://creativecommons.org/licenses/by/4.0/)",
      "source": "https://sketchfab.com/3d-models/sponge-neighbor-rigged-game-ready-ae0280d2117c4ee49190fe7218ff82bf",
      "title": "Sponge Neighbor - Rigged [Game Ready]"
    },
    "generator": "Sketchfab-16.75.0",
    "version": "2.0"
  },
  "bufferViews": [
    {
      "buffer": 0,
      "byteLength": 27064,
      "byteStride": 8,
      "name": "shortBufferViews",
      "target": 34962
    },
    {
      "buffer": 0,
      "byteLength": 55608,
      "byteOffset": 27064,
      "name": "floatBufferViews",
      "target": 34963
    },
    {
      "buffer": 0,
      "byteLength": 27064,
      "byteOffset": 82672,
      "byteStride": 8,
      "name": "floatBufferViews",
      "target": 34962
    },
    {
      "buffer": 0,
      "byteLength": 81192,
      "byteOffset": 109736,
      "byteStride": 12,
      "name": "floatBufferViews",
      "target": 34962
    },
    {
      "buffer": 0,
      "byteLength": 54128,
      "byteOffset": 190928,
      "byteStride": 16,
      "name": "floatBufferViews",
      "target": 34962
    },
    {
      "buffer": 0,
      "byteLength": 3712,
      "byteOffset": 245056,
      "name": "floatBufferViews"
    },
    {
      "buffer": 0,
      "byteLength": 25908,
      "byteOffset": 248768,
      "name": "floatBufferViews"
    },
    {
      "buffer": 0,
      "byteLength": 32868,
      "byteOffset": 274676,
      "byteStride": 12,
      "name": "floatBufferViews"
    },
    {
      "buffer": 0,
      "byteLength": 59808,
      "byteOffset": 307544,
      "byteStride": 16,
      "name": "floatBufferViews"
    }
  ],
  "buffers": [
    {
      "byteLength": 367352,
      "uri": "scene.bin"
    }
  ],
  "extensionsUsed": [
    "KHR_materials_clearcoat"
  ],
  "images": [
    {
      "uri": "textures/Scene_-_Root_baseColor.png"
    }
  ],
  "materials": [
    {
      "doubleSided": true,
      "extensions": {
        "KHR_materials_clearcoat": {
          "clearcoatFactor": 1.0,
          "clearcoatRoughnessFactor": 0.04
        }
      },
      "name": "Scene_-_Root",
      "pbrMetallicRoughness": {
        "baseColorTexture": {
          "index": 0
        },
        "metallicFactor": 0.0,
        "roughnessFactor": 0.6
      }
    }
  ],
  "meshes": [
    {
      "name": "mesh0421_0__0",
      "primitives": [
        {
          "attributes": {
            "JOINTS_0": 5,
            "NORMAL": 1,
            "POSITION": 0,
            "TEXCOORD_0": 2,
            "WEIGHTS_0": 6
          },
          "indices": 3,
          "material": 0,
          "mode": 4
        }
      ]
    }
  ],
  "nodes": [
    {
      "children": [
        1
      ],
      "matrix": [
        68.51189422607422,
        0.0,
        0.0,
        0.0,
        0.0,
        1.5212696486094184e-14,
        -68.51189422607422,
        0.0,
        0.0,
        68.51189422607422,
        1.5212696486094184e-14,
        0.0,
        0.0,
        0.0,
        0.0,
        1.0
      ],
      "name": "Sketchfab_model"
    },
    {
      "children": [
        2
      ],
      "matrix": [
        0.009999999776482582,
        0.0,
        0.0,
        0.0,
        0.0,
        0.0,
        0.009999999776482582,
        0.0,
        0.0,
        -0.009999999776482582,
        0.0,
        0.0,
        0.0,
        0.0,
        0.0,
        1.0
      ],
      "name": "mesh0421@Hip Hop Dancing.fbx"
    },
    {
      "children": [
        3
      ],
      "name": "Object_2"
    },
    {
      "children": [
        4
      ],
      "name": "RootNode"
    },
    {
      "children": [
        5,
        6,
        64
      ],
      "name": "Object_4"
    },
    {
      "children": [
        7
      ],
      "name": "_rootJoint"
    },
    {
      "mesh": 0,
      "name": "Object_6",
      "skin": 0
    },
    {
      "children": [
        8,
        54,
        59
      ],
      "name": "mixamorig:Hips_01",
      "translation": [
        0.004600068088620901,
        0.9268711805343628,
        -0.0882689580321312
      ]
    },
    {
      "children": [
        9
      ],
      "name": "mixamorig:Spine_02",
      "rotation": [
        0.079866923391819,
        0.0,
        0.0,
        0.9968055486679077
      ],
      "translation": [
        0.0,
        0.09434783458709717,
        0.015216514468193054
      ]
    },
    {
      "children": [
        10
      ],
      "name": "mixamorig:Spine1_03",
      "rotation": [
        1.945629435340379e-08,
        0.0,
        0.0,
        1.0
      ],
      "translation": [
        0.0,
        0.1114947646856308,
        3.067968379344421e-10
      ]
    },
    {
      "children": [
        11,
        14,
        34
      ],
      "name": "mixamorig:Spine2_00",
      "rotation": [
        -1.3877787807814457e-17,
        -0.0,
        0.0,
        1.0
      ],
      "translation": [
        0.0,
        0.12742263078689575,
        4.770583927893313e-10
      ]
    },
    {
      "children": [
        12
      ],
      "name": "mixamorig:Neck_04",
      "rotation": [
        -0.0798669382929802,
        -0.0,
        0.0,
        0.9968055486679077
      ],
      "translation": [
        0.0,
        0.14335036277770996,
        7.416860903219913e-09
      ]
    },
    {
      "children": [
        13
      ],
      "name": "mixamorig:Head_05",
      "translation": [
        0.0,
        0.4722694158554077,
        0.02460804209113121
      ]
    },
    {
      "name": "mixamorig:HeadTop_End_06",
      "translation": [
        0.0,
        1.7294199466705322,
        0.090113066136837
      ]
    },
    {
      "children": [
        15
      ],
      "name": "mixamorig:LeftShoulder_07",
      "rotation": [
        -0.00034060003235936165,
        0.0003321651602163911,
        -0.6981845498085022,
        0.7159176468849182
      ],
      "translation": [
        0.35962074995040894,
        0.15158933401107788,
        -0.0003198519698344171
      ]
    },
    {
      "children": [
        16
      ],
      "name": "mixamorig:LeftArm_08",
      "rotation": [
        8.349804556928575e-05,
        -3.6960059333068784e-06,
        -0.04416316747665405,
        0.9990243315696716
      ],
      "translation": [
        1.0029406194433932e-09,
        0.6524315476417542,
        1.7683754460762202e-10
      ]
    },
    {
      "children": [
        17
      ],
      "name": "mixamorig:LeftForeArm_09",
      "rotation": [
        0.002832918195053935,
        9.091008541872725e-05,
        0.03207262232899666,
        0.9994814991950989
      ],
      "translation": [
        -3.26056071031644e-10,
        0.3869416415691376,
        -2.3024956941064545e-10
      ]
    },
    {
      "children": [
        18,
        22,
        26,
        30
      ],
      "name": "mixamorig:LeftHand_010",
      "rotation": [
        -0.02631525509059429,
        0.6384196877479553,
        -0.013483786024153233,
        0.7691202759742737
      ],
      "translation": [
        -1.3862244685469705e-12,
        0.43953099846839905,
        1.6445234063411363e-11
      ]
    },
    {
      "children": [
        19
      ],
      "name": "mixamorig:LeftHandThumb1_011",
      "rotation": [
        0.046822573989629745,
        0.01854543201625347,
        0.3677785098552704,
        0.9285486936569214
      ],
      "translation": [
        -0.07530556619167328,
        0.06226756051182747,
        0.00980179663747549
      ]
    },
    {
      "children": [
        20
      ],
      "name": "mixamorig:LeftHandThumb2_012",
      "rotation": [
        0.0474628247320652,
        -6.0291275789969064e-18,
        5.586027438931441e-17,
        0.9988731145858765
      ],
      "translation": [
        -0.009796000085771084,
        0.07795105129480362,
        6.243936478966816e-10
      ]
    },
    {
      "children": [
        21
      ],
      "name": "mixamorig:LeftHandThumb3_013",
      "rotation": [
        -0.04793891683220863,
        -5.6003436192290186e-18,
        -2.805630870785114e-17,
        0.9988502860069275
      ],
      "translation": [
        -0.0034517040476202965,
        0.062230102717876434,
        -7.468365925689113e-10
      ]
    },
    {
      "name": "mixamorig:LeftHandThumb4_014",
      "rotation": [
        -2.9846332072480664e-09,
        8.673617379884035e-18,
        -8.326672684688674e-17,
        1.0
      ],
      "translation": [
        0.013247702270746231,
        0.03355802968144417,
        3.752820276758939e-11
      ]
    },
    {
      "children": [
        23
      ],
      "name": "mixamorig:LeftHandIndex1_015",
      "rotation": [
        0.01807820238173008,
        0.0007374634151346982,
        0.040752310305833817,
        0.9990054368972778
      ],
      "translation": [
        -0.07148931920528412,
        0.16851863265037537,
        -0.0018166551599279046
      ]
    },
    {
      "children": [
        24
      ],
      "name": "mixamorig:LeftHandIndex2_016",
      "rotation": [
        0.007721745874732733,
        -1.7614618824824306e-18,
        -3.4559483983325145e-18,
        0.9999701976776123
      ],
      "translation": [
        -8.613348472863436e-05,
        0.08124775439500809,
        8.043632426790737e-11
      ]
    },
    {
      "children": [
        25
      ],
      "name": "mixamorig:LeftHandIndex3_017",
      "rotation": [
        0.05071519315242767,
        -2.084398570297114e-18,
        -6.84198762719511e-18,
        0.9987131357192993
      ],
      "translation": [
        -2.352206502109766e-05,
        0.07925639301538467,
        1.3920531394262525e-10
      ]
    },
    {
      "name": "mixamorig:LeftHandIndex4_018",
      "rotation": [
        -1.9400626882770666e-08,
        -2.6020852139652106e-17,
        3.8163916471489756e-17,
        1.0
      ],
      "translation": [
        0.00010965521505568177,
        0.05669187009334564,
        -7.734071161280553e-10
      ]
    },
    {
      "children": [
        27
      ],
      "name": "mixamorig:LeftHandMiddle1_019",
      "rotation": [
        -0.007868733257055283,
        -0.00022258603712543845,
        0.02827533334493637,
        0.9995691776275635
      ],
      "translation": [
        0.0021314986515790224,
        0.17552784085273743,
        0.0018538322765380144
      ]
    },
    {
      "children": [
        28
      ],
      "name": "mixamorig:LeftHandMiddle2_020",
      "rotation": [
        0.0427127368748188,
        -2.1591854170441054e-18,
        -9.891462160856057e-18,
        0.999087393283844
      ],
      "translation": [
        -0.00011927026935154572,
        0.08419866114854813,
        -1.2905454482847745e-11
      ]
    },
    {
      "children": [
        29
      ],
      "name": "mixamorig:LeftHandMiddle3_021",
      "rotation": [
        0.011529983021318913,
        -1.7646101318938074e-18,
        -2.5819108992105017e-18,
        0.9999335408210754
      ],
      "translation": [
        4.810008977074176e-05,
        0.08397264033555984,
        -1.088618084565951e-11
      ]
    },
    {
      "name": "mixamorig:LeftHandMiddle4_022",
      "rotation": [
        -2.1033127239888927e-08,
        5.724587470723463e-17,
        -1.9081956581383653e-17,
        1.0
      ],
      "translation": [
        7.117008499335498e-05,
        0.05661002919077873,
        7.378830879645193e-11
      ]
    },
    {
      "children": [
        31
      ],
      "name": "mixamorig:LeftHandRing1_023",
      "rotation": [
        -0.018004165962338448,
        -0.0004388087836559862,
        0.024361465126276016,
        0.9995409846305847
      ],
      "translation": [
        0.06935781985521317,
        0.179385244846344,
        0.00020222949387971312
      ]
    },
    {
      "children": [
        32
      ],
      "name": "mixamorig:LeftHandRing2_024",
      "rotation": [
        0.043609365820884705,
        -5.208675667136691e-18,
        1.0316433425460838e-20,
        0.99904865026474
      ],
      "translation": [
        -0.00013800692977383733,
        0.07292830944061279,
        -5.325517804521951e-10
      ]
    },
    {
      "children": [
        33
      ],
      "name": "mixamorig:LeftHandRing3_025",
      "rotation": [
        0.08245067298412323,
        1.6592581343323693e-18,
        -9.838015746732322e-19,
        0.9965952634811401
      ],
      "translation": [
        -8.652151336718816e-06,
        0.06891494989395142,
        5.308442574403216e-11
      ]
    },
    {
      "name": "mixamorig:LeftHandRing4_026",
      "rotation": [
        7.69297336944419e-09,
        3.9898639947466563e-17,
        -7.37257477290143e-18,
        1.0
      ],
      "translation": [
        0.00014665909111499786,
        0.047913748770952225,
        4.747673365557148e-10
      ]
    },
    {
      "children": [
        35
      ],
      "name": "mixamorig:RightShoulder_027",
      "rotation": [
        -0.0024975126143544912,
        -0.0024380164686590433,
        0.6985282897949219,
        0.7155739665031433
      ],
      "translation": [
        -0.35962074995040894,
        0.15127213299274445,
        -0.0022865580394864082
      ]
    },
    {
      "children": [
        36
      ],
      "name": "mixamorig:RightArm_028",
      "rotation": [
        0.011249545961618423,
        0.0004770600935444236,
        0.04236622154712677,
        0.9990386962890625
      ],
      "translation": [
        1.1053875592637041e-09,
        0.6524316072463989,
        -3.165243345204516e-10
      ]
    },
    {
      "children": [
        37
      ],
      "name": "mixamorig:RightForeArm_029",
      "rotation": [
        -0.005889669992029667,
        0.00018071281374432147,
        -0.030668502673506737,
        0.999512255191803
      ],
      "translation": [
        1.0373679693032045e-10,
        0.38692525029182434,
        2.940026000430862e-11
      ]
    },
    {
      "children": [
        38,
        42,
        46,
        50
      ],
      "name": "mixamorig:RightHand_030",
      "rotation": [
        -0.032593898475170135,
        -0.6558910012245178,
        0.010130712762475014,
        0.7540836930274963
      ],
      "translation": [
        7.475797758615954e-12,
        0.4395287334918976,
        4.7924164636725664e-11
      ]
    },
    {
      "children": [
        39
      ],
      "name": "mixamorig:RightHandThumb1_031",
      "rotation": [
        0.03888419643044472,
        -0.015545852482318878,
        -0.37090399861335754,
        0.9277265667915344
      ],
      "translation": [
        0.07781072705984116,
        0.06696237623691559,
        0.00857778824865818
      ]
    },
    {
      "children": [
        40
      ],
      "name": "mixamorig:RightHandThumb2_032",
      "rotation": [
        0.034298125654459,
        1.2924152165912538e-18,
        1.3881522693716256e-16,
        0.9994116425514221
      ],
      "translation": [
        0.008160040713846684,
        0.08200697600841522,
        1.2909011637418644e-09
      ]
    },
    {
      "children": [
        41
      ],
      "name": "mixamorig:RightHandThumb3_033",
      "rotation": [
        0.04447443038225174,
        6.9320287184133445e-18,
        -3.08603353859153e-19,
        0.9990106225013733
      ],
      "translation": [
        0.00136406603269279,
        0.06242601200938225,
        6.322942169845192e-11
      ]
    },
    {
      "name": "mixamorig:RightHandThumb4_034",
      "rotation": [
        1.1346946715562467e-09,
        -3.149410375703062e-26,
        -2.7755575615628914e-17,
        1.0
      ],
      "translation": [
        -0.009524106979370117,
        0.03414081037044525,
        1.1485907780439675e-09
      ]
    },
    {
      "children": [
        43
      ],
      "name": "mixamorig:RightHandIndex1_035",
      "rotation": [
        0.0012944595655426383,
        -4.7869318223092705e-05,
        -0.03695530444383621,
        0.9993160963058472
      ],
      "translation": [
        0.07358592748641968,
        0.1775345504283905,
        0.0016000429168343544
      ]
    },
    {
      "children": [
        44
      ],
      "name": "mixamorig:RightHandIndex2_036",
      "rotation": [
        0.03802689164876938,
        -3.4009714932804026e-18,
        1.865401055557628e-18,
        0.9992766976356506
      ],
      "translation": [
        -0.00015852766227908432,
        0.08503197878599167,
        -2.1476020961586073e-10
      ]
    },
    {
      "children": [
        45
      ],
      "name": "mixamorig:RightHandIndex3_037",
      "rotation": [
        0.037033844739198685,
        1.733533473268073e-18,
        -6.424347987476813e-20,
        0.99931401014328
      ],
      "translation": [
        2.7486927137942985e-05,
        0.07929251343011856,
        -2.2767343565988085e-10
      ]
    },
    {
      "name": "mixamorig:RightHandIndex4_038",
      "rotation": [
        -3.847940632795144e-09,
        -3.642919299551295e-17,
        -2.949029909160572e-17,
        1.0
      ],
      "translation": [
        0.00013104073877912015,
        0.052256159484386444,
        9.36984045907252e-10
      ]
    },
    {
      "children": [
        47
      ],
      "name": "mixamorig:RightHandMiddle1_039",
      "rotation": [
        0.046768952161073685,
        -0.002450708532705903,
        -0.052271123975515366,
        0.9975341558456421
      ],
      "translation": [
        0.00019989196152891964,
        0.18623866140842438,
        -0.00609973631799221
      ]
    },
    {
      "children": [
        48
      ],
      "name": "mixamorig:RightHandMiddle2_040",
      "rotation": [
        -0.009784345515072346,
        -1.734640447722822e-18,
        -1.6973133862064383e-20,
        0.9999521374702454
      ],
      "translation": [
        0.00018512835958972573,
        0.08590402454137802,
        7.845257776750714e-11
      ]
    },
    {
      "children": [
        49
      ],
      "name": "mixamorig:RightHandMiddle3_041",
      "rotation": [
        -0.22998496890068054,
        -2.087183149752182e-17,
        1.2892624797250539e-17,
        0.9731941819190979
      ],
      "translation": [
        0.00025329660275019705,
        0.08588460832834244,
        2.4677904164605025e-10
      ]
    },
    {
      "name": "mixamorig:RightHandMiddle4_042",
      "rotation": [
        7.978991689583381e-09,
        1.0842060498946258e-19,
        4.85722573273506e-17,
        1.0
      ],
      "translation": [
        -0.00043842423474416137,
        0.05305664241313934,
        6.849934508501576e-10
      ]
    },
    {
      "children": [
        51
      ],
      "name": "mixamorig:RightHandRing1_043",
      "rotation": [
        0.030218137428164482,
        -0.0021595992147922516,
        -0.07125246524810791,
        0.996998131275177
      ],
      "translation": [
        -0.07378581166267395,
        0.19279788434505463,
        -1.5325159097301366e-07
      ]
    },
    {
      "children": [
        52
      ],
      "name": "mixamorig:RightHandRing2_044",
      "rotation": [
        -0.002222054172307253,
        1.541859815037442e-20,
        -6.938876946704671e-18,
        0.9999975562095642
      ],
      "translation": [
        1.3352400856092572e-05,
        0.07194430381059647,
        -1.5575518652610754e-10
      ]
    },
    {
      "children": [
        53
      ],
      "name": "mixamorig:RightHandRing3_045",
      "rotation": [
        -0.017587462440133095,
        -1.8564927339507383e-18,
        6.907311320939341e-18,
        0.9998453259468079
      ],
      "translation": [
        4.5915430746390484e-06,
        0.0692668929696083,
        -1.0860201626883281e-11
      ]
    },
    {
      "name": "mixamorig:RightHandRing4_046",
      "rotation": [
        -9.432552516841497e-09,
        3.469446745158461e-18,
        1.3877787807814457e-17,
        1.0
      ],
      "translation": [
        -1.7944907085620798e-05,
        0.03953948989510536,
        1.4058754160828357e-11
      ]
    },
    {
      "children": [
        55
      ],
      "name": "mixamorig:LeftUpLeg_047",
      "rotation": [
        3.121708141406998e-05,
        -0.009640776552259922,
        0.9999483823776245,
        0.0032378584146499634
      ],
      "translation": [
        0.4851273000240326,
        -0.054319024085998535,
        0.06468501687049866
      ]
    },
    {
      "children": [
        56
      ],
      "name": "mixamorig:LeftLeg_048",
      "rotation": [
        0.008376097306609154,
        4.071081639267504e-05,
        0.004860128741711378,
        0.9999532103538513
      ],
      "translation": [
        9.162026692877134e-11,
        0.39512571692466736,
        -1.5029720523696e-11
      ]
    },
    {
      "children": [
        57
      ],
      "name": "mixamorig:LeftFoot_049",
      "rotation": [
        0.5196146965026855,
        -0.005302692763507366,
        0.0032249854411929846,
        0.8543781638145447
      ],
      "translation": [
        1.042149699870265e-11,
        0.30838948488235474,
        3.576913765179768e-11
      ]
    },
    {
      "children": [
        58
      ],
      "name": "mixamorig:LeftToeBase_050",
      "rotation": [
        0.2633275091648102,
        0.0007662684074603021,
        -0.00020916099310852587,
        0.9647061824798584
      ],
      "translation": [
        7.615530428495276e-11,
        0.3081423342227936,
        7.625100550967545e-10
      ]
    },
    {
      "name": "mixamorig:LeftToe_End_051",
      "rotation": [
        4.955265087147609e-10,
        -6.440160904563896e-17,
        3.469446951953614e-18,
        1.0
      ],
      "translation": [
        -3.2210012435029967e-11,
        0.12188256531953812,
        6.950266751015732e-11
      ]
    },
    {
      "children": [
        60
      ],
      "name": "mixamorig:RightUpLeg_052",
      "rotation": [
        -4.278830601833761e-05,
        -0.013216479681432247,
        0.9999074339866638,
        -0.0032371964771300554
      ],
      "translation": [
        -0.4851273000240326,
        -0.054319024085998535,
        0.06724201142787933
      ]
    },
    {
      "children": [
        61
      ],
      "name": "mixamorig:RightLeg_053",
      "rotation": [
        0.03382755443453789,
        -0.00016446768131572753,
        -0.004859103821218014,
        0.9994158744812012
      ],
      "translation": [
        1.0625889057536142e-11,
        0.3951902985572815,
        1.3832203438202129e-10
      ]
    },
    {
      "children": [
        62
      ],
      "name": "mixamorig:RightFoot_054",
      "rotation": [
        0.4973900020122528,
        0.005631974898278713,
        -0.0032291400711983442,
        0.867502748966217
      ],
      "translation": [
        -1.8741119767184955e-11,
        0.30865082144737244,
        2.3059930354119018e-10
      ]
    },
    {
      "children": [
        63
      ],
      "name": "mixamorig:RightToeBase_055",
      "rotation": [
        0.2666073441505432,
        -0.001506152213551104,
        0.0004166313156019896,
        0.9638040661811829
      ],
      "translation": [
        -2.021930955997675e-10,
        0.3035717308521271,
        2.8582451960801336e-09
      ]
    },
    {
      "name": "mixamorig:RightToe_End_056",
      "rotation": [
        -1.1821632561748174e-09,
        4.1470733097570545e-17,
        -2.6020852139652106e-18,
        1.0
      ],
      "translation": [
        -8.130629503000364e-11,
        0.12439920753240585,
        3.059031500329823e-11
      ]
    },
    {
      "name": "mesh0421_0"
    }
  ],
  "samplers": [
    {
      "magFilter": 9729,
      "minFilter": 9987,
      "wrapS": 10497,
      "wrapT": 10497
    }
  ],
  "scene": 0,
  "scenes": [
    {
      "name": "Sketchfab_Scene",
      "nodes": [
        0
      ]
    }
  ],
  "skins": [
    {
      "inverseBindMatrices": 4,
      "joints": [
        5,
        7,
        8,
        9,
        10,
        11,
        12,
        13,
        14,
        15,
        16,
        17,
        18,
        19,
        20,
        21,
        22,
        23,
        24,
        25,
        26,
        27,
        28,
        29,
        30,
        31,
        32,
        33,
        34,
        35,
        36,
        37,
        38,
        39,
        40,
        41,
        42,
        43,
        44,
        45,
        46,
        47,
        48,
        49,
        50,
        51,
        52,
        53,
        54,
        55,
        56,
        57,
        58,
        59,
        60,
        61,
        62,
        63
      ],
      "skeleton": 5
    }
  ],
  "textures": [
    {
      "sampler": 0,
      "source": 0
    }
  ]
}
