{
  "accessors": [
    {
      "bufferView": 2,
      "componentType": 5126,
      "count": 168,
      "max": [
        1.2637771368026733,
        1.7225852012634277,
        0.13840848207473755
      ],
      "min": [
        -1.3225946426391602,
        -1.7266333103179932,
        -0.13840848207473755
      ],
      "type": "VEC3"
    },
    {
      "bufferView": 2,
      "byteOffset": 2016,
      "componentType": 5126,
      "count": 168,
      "max": [
        1.0,
        0.9999988675117493,
        5.020218054596626e-07
      ],
      "min": [
        -1.0,
        -0.9999815821647644,
        -2.6950320375362935e-07
      ],
      "type": "VEC3"
    },
    {
      "bufferView": 1,
      "componentType": 5126,
      "count": 168,
      "max": [
        0.8638672828674316,
        0.6244675517082214
      ],
      "min": [
        0.8248788118362427,
        0.03615465760231018
      ],
      "type": "VEC2"
    },
    {
      "bufferView": 0,
      "componentType": 5125,
      "count": 252,
      "type": "SCALAR"
    },
    {
      "bufferView": 2,
      "byteOffset": 4032,
      "componentType": 5126,
      "count": 1007,
      "max": [
        1.2637771368026733,
        1.7225852012634277,
        0.13840848207473755
      ],
      "min": [
        -1.3381251096725464,
        -1.7266333103179932,
        -0.13840848207473755
      ],
      "type": "VEC3"
    },
    {
      "bufferView": 2,
      "byteOffset": 16116,
      "componentType": 5126,
      "count": 1007,
      "max": [
        1.153497805717052e-06,
        1.0,
        1.0
      ],
      "min": [
        -0.9998860359191895,
        -0.999480128288269,
        -1.0
      ],
      "type": "VEC3"
    },
    {
      "bufferView": 1,
      "byteOffset": 1344,
      "componentType": 5126,
      "count": 1007,
      "max": [
        0.8656230568885803,
        0.9935171604156494
      ],
      "min": [
        0.11858275532722473,
        0.007558178156614304
      ],
      "type": "VEC2"
    },
    {
      "bufferView": 0,
      "byteOffset": 1008,
      "componentType": 5125,
      "count": 1536,
      "type": "SCALAR"
    }
  ],
  "asset": {
    "extras": {
      "author": "Kiran Kumar (https://sketchfab.com/ppkirankumark2001)",
      "license": "CC-BY-4.0 (http://creativecommons.org/licenses/by/4.0/)",
      "source": "https://sketchfab.com/3d-models/sandisk-sd-card-c3f3586026424565a8530bc02afc8913",
      "title": "SanDisk SD Card"
    },
    "generator": "Sketchfab-15.55.0",
    "version": "2.0"
  },
  "bufferViews": [
    {
      "buffer": 0,
      "byteLength": 7152,
      "name": "floatBufferViews",
      "target": 34963
    },
    {
      "buffer": 0,
      "byteLength": 9400,
      "byteOffset": 7152,
      "byteStride": 8,
      "name": "floatBufferViews",
      "target": 34962
    },
    {
      "buffer": 0,
      "byteLength": 28200,
      "byteOffset": 16552,
      "byteStride": 12,
      "name": "floatBufferViews",
      "target": 34962
    }
  ],
  "buffers": [
    {
      "byteLength": 44752,
      "uri": "scene.bin"
    }
  ],
  "images": [
    {
      "uri": "textures/SD_Card_Side_baseColor.jpeg"
    }
  ],
  "materials": [
    {
      "doubleSided": true,
      "name": "SD_Card_Side",
      "pbrMetallicRoughness": {
        "baseColorTexture": {
          "index": 0
        },
        "metallicFactor": 0.0,
        "roughnessFactor": 0.8211145618000169
      }
    },
    {
      "doubleSided": true,
      "name": "SD_Card",
      "pbrMetallicRoughness": {
        "baseColorTexture": {
          "index": 0
        },
        "metallicFactor": 0.0,
        "roughnessFactor": 0.8211145618000169
      }
    }
  ],
  "meshes": [
    {
      "name": "Cube_SD Card Side_0",
      "primitives": [
        {
          "attributes": {
            "NORMAL": 1,
            "POSITION": 0,
            "TEXCOORD_0": 2
          },
          "indices": 3,
          "material": 0,
          "mode": 4
        }
      ]
    },
    {
      "name": "Cube_SD Card_0",
      "primitives": [
        {
          "attributes": {
            "NORMAL": 5,
            "POSITION": 4,
            "TEXCOORD_0": 6
          },
          "indices": 7,
          "material": 1,
          "mode": 4
        }
      ]
    }
  ],
  "nodes": [
    {
      "children": [
        1
      ],
      "matrix": [
        1.0,
        0.0,
        0.0,
        0.0,
        0.0,
        2.220446049250313e-16,
        -1.0,
        0.0,
        0.0,
        1.0,
        2.220446049250313e-16,
        0.0,
        0.0,
        0.0,
        0.0,
        1.0
      ],
      "name": "Sketchfab_model"
    },
    {
      "children": [
        2
      ],
      "matrix": [
        0.009999999776482582,
        0.0,
        0.0,
        0.0,
        0.0,
        0.0,
        0.009999999776482582,
        0.0,
        0.0,
        -0.009999999776482582,
        0.0,
        0.0,
        0.0,
        0.0,
        0.0,
        1.0
      ],
      "name": "c548ddde03bb47d786ada486591cad6d.fbx"
    },
    {
      "children": [
        3
      ],
      "name": "RootNode"
    },
    {
      "children": [
        4,
        5
      ],
      "matrix": [
        4.015147836476353e-08,
        -1.0198050368326182e-16,
        -0.918558716773986,
        0.0,
        -0.9277462959289533,
        -4.0553080220941905e-08,
        -4.055308027244217e-08,
        0.0,
        -3.6318656076706475e-08,
        0.8308739662170402,
        -1.6604197341404101e-15,
        0.0,
        -4.274491310119629,
        1.862645149230957e-07,
        -0.8708020448684692,
        1.0
      ],
      "name": "Cube"
    },
    {
      "mesh": 0,
      "name": "Cube_SD Card Side_0"
    },
    {
      "mesh": 1,
      "name": "Cube_SD Card_0"
    }
  ],
  "samplers": [
    {
      "magFilter": 9729,
      "minFilter": 9987,
      "wrapS": 10497,
      "wrapT": 10497
    }
  ],
  "scene": 0,
  "scenes": [
    {
      "name": "Sketchfab_Scene",
      "nodes": [
        0
      ]
    }
  ],
  "textures": [
    {
      "sampler": 0,
      "source": 0
    }
  ]
}
